<svg xmlns="http://www.w3.org/2000/svg" viewBox="0 0 841.13 101.87"><defs><style>.cls-1{fill:#fff;}</style></defs><g id="Layer_2" data-name="Layer 2"><g id="Layer_1-2" data-name="Layer 1"><path class="cls-1" d="M68.65,33.82A34.35,34.35,0,0,1,17,63.91v35.8a2.16,2.16,0,0,1-2.16,2.16H2.16A2.16,2.16,0,0,1,0,99.71V36.42a2.16,2.16,0,0,1,2.16-2.16H15a2.18,2.18,0,0,1,2.15,2A17.13,17.13,0,0,0,34.32,51.09,17.07,17.07,0,0,0,51.63,34.26,17,17,0,0,0,36.3,17.54a2.19,2.19,0,0,1-2-2.15V2.17A2.17,2.17,0,0,1,36.62,0,34.35,34.35,0,0,1,68.65,33.82Z"/><path class="cls-1" d="M136.22,80.4V27.14h-11.8V18.91H157v8.23h-11.8V80.4Z"/><path class="cls-1" d="M195.38,80.4v-25c0-9.89-3.82-14.37-11.47-14.37s-12.13,5.48-12.13,14.45V80.4h-8.64V18.91h8.64V39.27H172c2.74-4.07,7.14-6.15,12.88-6.15,11,0,19.19,7,19.19,19.61V80.4Z"/><path class="cls-1" d="M221.22,61.12c2,7.65,8.06,12.55,15.13,12.55a14.82,14.82,0,0,0,13.13-7.73h8.64A23.59,23.59,0,0,1,236,81.57c-13,0-23.44-11.47-23.44-23.77,0-14.54,11-24.68,23.19-24.68A23.45,23.45,0,0,1,259.62,56.8a25.93,25.93,0,0,1-.25,4.32ZM251,54.48a14.95,14.95,0,0,0-29.75,0Z"/><path class="cls-1" d="M292.61,80.4V18.91h17.86c13.21,0,21.61,6.57,21.61,18.62s-8.23,18.61-21.52,18.61h-9V80.4Zm17.86-32.49c7.9,0,12.63-3.74,12.63-10.38s-4.9-10.39-12.71-10.39h-8.81V47.91Z"/><path class="cls-1" d="M339.22,80.4V18.91h8.65V80.4Z"/><path class="cls-1" d="M396.81,80.4V73.26h-.17c-3.24,5.48-9.05,8.31-15.62,8.31-13.46,0-24.43-10.14-24.43-23.44,0-14.7,10.55-25,24.1-25,6.73,0,12.38,2.49,15.95,7.73h.17V34.37h8.64v46ZM397,57.47c0-9-6.49-16.45-16-16.45-8.64,0-15.71,7.39-15.71,16.45,0,8.64,7.07,16.2,15.71,16.2A16.19,16.19,0,0,0,397,57.47Z"/><path class="cls-1" d="M448.75,80.4V55.31c0-9.72-3.83-14.29-11.47-14.29s-12.13,5.56-12.13,14.21V80.4H416.5v-46h8.06v4.9h.17c3.41-4.4,8.14-6.15,13.46-6.15,11.05,0,19.2,7,19.2,19.7V80.4Z"/><path class="cls-1" d="M474.76,61.12c2,7.65,8.06,12.55,15.12,12.55A14.82,14.82,0,0,0,503,65.94h8.64a23.58,23.58,0,0,1-22.1,15.63c-13,0-23.44-11.47-23.44-23.77,0-14.54,11-24.68,23.19-24.68A23.45,23.45,0,0,1,513.15,56.8a25.93,25.93,0,0,1-.25,4.32Zm29.75-6.64a14.95,14.95,0,0,0-29.75,0Z"/><path class="cls-1" d="M522.79,80.4V42.26h-6.24V34.37h6.24V18.91h8.64V34.37H539v7.89h-7.56V80.4Z"/><path class="cls-1" d="M569.15,80.4V18.91H587c13.21,0,21.61,6.57,21.61,18.62S600.4,56.14,587.1,56.14h-9V80.4ZM587,47.91c7.9,0,12.63-3.74,12.63-10.38s-4.9-10.39-12.71-10.39h-8.81V47.91Z"/><path class="cls-1" d="M615.77,80.4v-46h8.06v4.15H624c2.08-3.07,5.65-5.07,11.72-5.4V42c-7.48.25-11.31,4.82-11.31,12.55V80.4Z"/><path class="cls-1" d="M663.8,81.57c-13,0-24.51-11-24.51-24,0-14,11.05-24.43,25.18-24.43,12.71,0,24.68,10,24.51,24.6C688.82,70,678.51,81.57,663.8,81.57ZM664.05,41A16.39,16.39,0,0,0,647.93,57.3c0,8.73,7.23,16.37,16,16.37A16.33,16.33,0,1,0,664.05,41Z"/><path class="cls-1" d="M693.14,89.46c3.4-.33,5.73-1.33,5.73-8.39V34.37h8.64v49a15.15,15.15,0,0,1-14.37,15.12Zm5.73-60.41V18.91h8.64V29.05Z"/><path class="cls-1" d="M724.8,61.12c2,7.65,8.06,12.55,15.12,12.55a14.82,14.82,0,0,0,13.13-7.73h8.64a23.58,23.58,0,0,1-22.1,15.63c-13,0-23.44-11.47-23.44-23.77,0-14.54,11-24.68,23.19-24.68A23.45,23.45,0,0,1,763.19,56.8a25.93,25.93,0,0,1-.25,4.32Zm29.75-6.64a14.95,14.95,0,0,0-29.75,0Z"/><path class="cls-1" d="M815.71,65.2C812.05,75.58,803.24,81.57,793,81.57a23.57,23.57,0,0,1-23.6-23.77c0-13.88,10.05-24.68,23.52-24.68,10.47,0,20,6.57,22.77,16.54h-9.56c-2.58-5.4-6.73-8.64-13-8.64-9,0-15.12,6.89-15.12,16.28,0,9.14,6.23,16.37,15,16.37a13.87,13.87,0,0,0,13.05-8.47Z"/><path class="cls-1" d="M824.93,80.4V42.26H818.7V34.37h6.23V18.91h8.64V34.37h7.56v7.89h-7.56V80.4Z"/></g></g></svg>